<svg width="17" height="14" viewBox="0 0 17 14" fill="none" xmlns="http://www.w3.org/2000/svg">
  <path opacity="0.2" d="M1.25 13.9375C0.666667 13.9375 0.25 13.5833 0 12.875C1.5 12 2.60417 11 3.3125 9.875C4.0625 8.70833 4.4375 7.8125 4.4375 7.1875C4.4375 6.6875 4.22917 6.1875 3.8125 5.6875C3.39583 5.1875 2.95833 4.6875 2.5 4.1875C2.08333 3.6875 1.875 3.1875 1.875 2.6875C1.875 1.9375 2.29167 1.3125 3.125 0.8125C3.95833 0.270833 4.89583 0 5.9375 0C6.35417 0 6.77083 0.0625 7.1875 0.1875C7.77083 1.02083 8.0625 2.47917 8.0625 4.5625C8.0625 5.64583 7.83333 6.72917 7.375 7.8125C6.95833 8.85417 6.4375 9.72917 5.8125 10.4375C4.9375 11.3958 4.04167 12.2292 3.125 12.9375C2.20833 13.6042 1.58333 13.9375 1.25 13.9375ZM10.125 13.9375C9.54167 13.9375 9.125 13.5833 8.875 12.875C10.375 12 11.4792 11 12.1875 9.875C12.9375 8.70833 13.3125 7.8125 13.3125 7.1875C13.3125 6.6875 13.1042 6.1875 12.6875 5.6875C12.2708 5.1875 11.8333 4.6875 11.375 4.1875C10.9583 3.6875 10.75 3.1875 10.75 2.6875C10.75 1.9375 11.1667 1.3125 12 0.8125C12.8333 0.270833 13.7708 0 14.8125 0C15.2292 0 15.6458 0.0625 16.0625 0.1875C16.6458 1.02083 16.9375 2.47917 16.9375 4.5625C16.9375 5.64583 16.7083 6.72917 16.25 7.8125C15.8333 8.85417 15.3125 9.72917 14.6875 10.4375C13.8125 11.3958 12.9167 12.2292 12 12.9375C11.0833 13.6042 10.4583 13.9375 10.125 13.9375Z" fill="black" />
</svg>