
<svg width="18" height="14" viewBox="0 0 18 14" fill="none" xmlns="http://www.w3.org/2000/svg">
  <path opacity="0.2" d="M16.0625 0C16.6458 0 17.0625 0.354167 17.3125 1.0625C15.8125 1.9375 14.6875 2.95833 13.9375 4.125C13.2292 5.25 12.875 6.125 12.875 6.75C12.875 7.20833 13.0833 7.70833 13.5 8.25C13.9583 8.75 14.3958 9.25 14.8125 9.75C15.2292 10.25 15.4375 10.75 15.4375 11.25C15.4375 12 15.0208 12.6458 14.1875 13.1875C13.3542 13.6875 12.4167 13.9375 11.375 13.9375C11 13.9375 10.5833 13.875 10.125 13.75C9.54167 12.9167 9.25 11.4583 9.25 9.375C9.25 8.29167 9.45833 7.22917 9.875 6.1875C10.3333 5.10417 10.875 4.20833 11.5 3.5C12.375 2.54167 13.2708 1.72917 14.1875 1.0625C15.1458 0.354167 15.7708 0 16.0625 0ZM6.8125 0C7.39583 0 7.8125 0.354167 8.0625 1.0625C6.5625 1.9375 5.4375 2.95833 4.6875 4.125C3.97917 5.25 3.625 6.125 3.625 6.75C3.625 7.20833 3.83333 7.70833 4.25 8.25C4.70833 8.75 5.14583 9.25 5.5625 9.75C5.97917 10.25 6.1875 10.75 6.1875 11.25C6.1875 12 5.77083 12.6458 4.9375 13.1875C4.10417 13.6875 3.16667 13.9375 2.125 13.9375C1.75 13.9375 1.33333 13.875 0.875 13.75C0.291667 12.9167 0 11.4583 0 9.375C0 8.29167 0.208333 7.22917 0.625 6.1875C1.08333 5.10417 1.625 4.20833 2.25 3.5C3.125 2.54167 4.02083 1.72917 4.9375 1.0625C5.89583 0.354167 6.52083 0 6.8125 0Z" fill="black" />
</svg>